HIERARCHY
ROOT hip
{
  OFFSET 0.0 0.0 0.0
  CHANNELS 6 Xposition Yposition Zposition Zrotation Yrotation Xrotation
  JOINT torso
  {
    OFFSET 0.0 0.0 0.0
    CHANNELS 3 Zrotation Xrotation Yrotation
    JOINT neck
    {
      OFFSET -31.42098999999993 328.8025209999999 74.3554680000002
      CHANNELS 3 Zrotation Xrotation Yrotation
      JOINT head
      {
        OFFSET 3.3519900000001144 303.81732099999994 206.53942900000015
        CHANNELS 3 Zrotation Xrotation Yrotation
        End Site
        {
          OFFSET 0.0 0.0 0.0
        }
      }
    }
    JOINT left_collar
    {
      OFFSET -31.42098999999993 328.8025209999999 74.3554680000002
      CHANNELS 3 Zrotation Xrotation Yrotation
      JOINT left_upper_arm
      {
        OFFSET -124.490479 -8.162841999999841 8.226441000000023
        CHANNELS 3 Zrotation Xrotation Yrotation
        JOINT left_forearm
        {
          OFFSET -253.595764 -1.5758060000000569 105.0729980000001
          CHANNELS 3 Zrotation Xrotation Yrotation
          JOINT left_hand
          {
            OFFSET -269.48803699999996 0.1478270000000066 -55.346191999999974
            CHANNELS 3 Zrotation Xrotation Yrotation
            End Site
            {
              OFFSET 0.0 0.0 0.0
            }
          }
        }
      }
    }
    JOINT right_collar
    {
      OFFSET -31.42098999999993 328.8025209999999 74.3554680000002
      CHANNELS 3 Zrotation Xrotation Yrotation
      JOINT right_upper_arm
      {
        OFFSET 162.02484099999998 0.46441600000002836 2.2303470000001653
        CHANNELS 3 Zrotation Xrotation Yrotation
        JOINT right_forearm
        {
          OFFSET 240.01246700000004 -25.835875999999985 121.34179699999959
          CHANNELS 3 Zrotation Xrotation Yrotation
          JOINT right_hand
          {
            OFFSET 252.48539699999992 18.910399999999868 -67.53466800000001
            CHANNELS 3 Zrotation Xrotation Yrotation
            End Site
            {
              OFFSET 0.0 0.0 0.0
            }
          }
        }
      }
    }
  }
}
MOTION
Frames: 6
Frame Time: 0.01
-713.5385481360095 216.59263259069252 805.190348240792 -0.04757132716441385 0.1353133865597385 -3.9984961305096065 0.6910509187275279 -1.357863748419823 -0.2936132847173321 -3.4547660988749196 -7.256429712380608 2.539549175012561 0.0 0.0 0.0 4.6945159100539735 -0.31070327476636295 5.825523889650708 40.61757833936764 7.970116776867734 23.38063357299431 42.69900171758068 -4.774336616240578 -11.048664835602333 0.0 0.0 0.0 1.5364824017561896 -0.07131915389283791 3.0798682190023214 -33.653656521472136 4.232525886993447 -30.56362124797664 -60.14136362332131 -8.781648750250996 16.21887228934437 0.0 0.0 0.0
-712.7288261005884 216.6002536922158 805.147001077009 -0.06642859139497848 0.1700083754148591 -3.9486267756541484 0.7030531532604222 -1.3725196560958777 -0.29794570518717317 -3.4497251640973636 -7.319069366693806 2.537526461595067 0.0 0.0 0.0 4.698608963683644 -0.3107758741912851 5.826782065764777 40.58499389511849 7.970203930383809 23.362170354001808 42.78900941322328 -4.740542032234403 -11.162187037591545 0.0 0.0 0.0 1.5450291692301028 -0.07164852875586564 3.0787531623878173 -33.598302555720984 4.230733082805437 -30.53691220898814 -60.12085398883386 -8.736813844771007 16.303932008343793 0.0 0.0 0.0
-711.9247939490085 216.61063794919286 805.0941960914502 -0.08492206608539576 0.20988986506675875 -3.894296040080108 0.7144033717639889 -1.38953495861528 -0.30236414906827397 -3.445194167733823 -7.387166571185486 2.536000798761875 0.0 0.0 0.0 4.7031093548103975 -0.3109421369598912 5.828974888598818 40.54709061519451 7.970471144866523 23.340231478501863 42.89315016877978 -4.70131699631883 -11.293241591376914 0.0 0.0 0.0 1.5542193093270682 -0.07199685582603281 3.0772104299336136 -33.53770041544795 4.229350721992405 -30.506202778372682 -60.09862902928109 -8.687909287191081 16.39685410976742 0.0 0.0 0.0
-711.1281740366625 216.62334270931197 805.0330335624361 -0.10299948591795687 0.2549501868187875 -3.835500456346472 0.7252076572875101 -1.4089400515565071 -0.30689729264708987 -3.4413978756754555 -7.460827313650979 2.535135200004398 0.0 0.0 0.0 4.708015232773495 -0.3112429794847837 5.832484297018606 40.503161500228366 7.971010755810627 23.31416406906551 43.011976441450294 -4.6559864402825015 -11.443431974439283 0.0 0.0 0.0 1.5640173368913268 -0.07237012571537076 3.075697094488741 -33.471649724784605 4.228219111771559 -30.471739540863844 -60.07490756956378 -8.634614677548333 16.498379576164314 0.0 0.0 0.0
-710.340775708732 216.63790531149607 804.9647161911882 -0.12061944395697913 0.30512206925071866 -3.7722681780962426 0.735587740061431 -1.430730776507781 -0.3115740519958005 -3.4385633115801246 -7.540100083846014 2.535093197462044 0.0 0.0 0.0 4.713321629956572 -0.31172127693573515 5.837709288524987 40.45255350376657 7.971916752011945 23.283333959786788 43.145877334665386 -4.603863727123006 -11.614277690790157 0.0 0.0 0.0 1.574367270793061 -0.0727744699391014 3.0747194880183955 -33.399954087033905 4.2271479089835795 -30.433843817712887 -60.04989010826029 -8.576555801900598 16.60935556712266 0.0 0.0 0.0
-709.5645048052526 216.65385496225394 804.8905265142449 -0.13775041862648038 0.36027341731294754 -3.7046552831876243 0.7456749000427572 -1.4548625914506814 -0.316421560848561 -3.4369134182290173 -7.624971745325379 2.536034276936705 0.0 0.0 0.0 4.719020147474869 -0.31242061662237514 5.84505404847068 40.39468494553882 7.973281914978405 23.24714160640841 43.29506321616805 -4.544257151798892 -11.807190158492693 0.0 0.0 0.0 1.5851925937803695 -0.07321597750883702 3.0748195752606664 -33.32242297347489 4.2259205179142505 -30.392902967288975 -60.02374410583486 -8.513303022555373 16.730734956300374 0.0 0.0 0.0
